<svg width="759" height="74" viewBox="0 0 759 74" fill="none" xmlns="http://www.w3.org/2000/svg">
<g clip-path="url(#clip0_3_4)">
<path d="M44.2622 11.8552C45.6499 4.74568 52.6966 -0.108261 58.5357 5.14001e-06C64.8254 0.108271 65.6905 5.91856 73.476 9.29286C84.2893 13.9844 90.543 6.20727 100.437 9.00415C111.971 12.2702 124.659 28.8169 119.234 43.4689C113.882 57.9225 93.9491 62.2351 82.0726 56.912C77.7833 54.9993 71.5837 50.4882 68.4479 43.5591C65.5643 37.1714 67.4206 33.4723 63.8162 30.098C59.3107 25.9117 54.1564 29.5928 48.93 25.2982C45.2354 22.2848 43.3431 16.7993 44.2983 11.8371L44.2622 11.8552Z" fill="#C1C1C1"/>
<path opacity="0.8" d="M102.744 48.7198C103.843 57.8322 97.2111 66.4214 90.1284 68.5687C82.4871 70.8783 79.189 64.2019 68.5019 63.1553C53.6337 61.6937 49.1102 73.5128 36.0622 73.982C20.8696 74.5233 -0.847032 59.4923 0.0180282 39.6976C0.90111 20.1736 23.2665 7.23581 39.6666 9.0222C45.5959 9.6718 54.8232 12.6852 61.2931 19.8488C67.2404 26.435 66.4474 31.6318 72.1064 34.2843C79.171 37.5865 83.9469 31.1446 91.9306 34.2843C97.5535 36.4857 101.987 42.3682 102.744 48.7198Z" fill="#F7F7F7"/>
<path d="M161.748 51.8776C152.917 51.8776 148.142 49.0807 147.673 43.6674C147.619 43.1621 148.142 42.7652 148.772 42.7652H155.567C156.143 42.7652 156.558 43.0719 156.666 43.523C157.08 45.147 158.883 45.959 161.964 45.959H164.055C167.659 45.959 169.57 44.6598 169.57 42.1697C169.57 40.4555 167.587 39.2465 163.875 38.615C153.53 36.9549 148.124 33.5625 148.124 28.7447C148.124 22.6096 152.719 19.4157 161.442 19.4157H163.947C172.093 19.4157 176.562 22.2126 176.977 27.5357C177.031 28.041 176.508 28.4379 175.877 28.4379H169.191C168.615 28.4379 168.2 28.1312 168.092 27.6801C167.75 26.1463 166.182 25.3343 163.496 25.3343H161.874C158.793 25.3343 157.171 26.417 157.171 28.4379C157.171 30.1882 159.838 31.5055 164.956 32.3175C173.913 33.7069 178.563 37.009 178.563 41.881C178.563 48.4672 173.625 51.8956 164.199 51.8956H161.766L161.748 51.8776Z" fill="#C1C1C1"/>
<path d="M199.865 51.8776C190.674 51.8776 184.51 47.5469 184.51 41.0149V20.7149C184.51 20.2277 184.979 19.8669 185.609 19.8669H192.296C192.926 19.8669 193.395 20.2277 193.395 20.7149V40.4194C193.395 43.7035 196.062 45.5981 200.027 45.5981H200.496C204.731 45.5981 207.128 43.523 207.128 40.4194V20.7149C207.128 20.2277 207.596 19.8669 208.227 19.8669H214.913C215.544 19.8669 216.013 20.2277 216.013 20.7149V41.0149C216.013 47.5469 209.849 51.8776 200.658 51.8776H199.847H199.865Z" fill="#C1C1C1"/>
<path d="M239.333 19.8669C249.57 19.8669 254.274 23.3314 254.274 30.9641V40.5638C254.274 47.998 249.57 51.4265 239.333 51.4265H224.447C223.816 51.4265 223.348 51.0656 223.348 50.5603V20.7149C223.348 20.2277 223.816 19.8669 224.447 19.8669H239.333ZM245.208 31.9927C245.208 27.9868 243.226 26.1283 238.865 26.1283H232.178V45.1651H238.865C243.226 45.1651 245.208 43.4509 245.208 39.6615V31.9927Z" fill="#C1C1C1"/>
<path d="M273.791 51.8776C263.501 51.8776 258.797 48.4491 258.797 41.0149V30.513C258.797 22.8983 263.501 19.4157 273.791 19.4157H276.873C287.164 19.4157 291.868 22.8803 291.868 30.513V41.0149C291.868 48.4491 287.164 51.8776 276.873 51.8776H273.791ZM276.459 45.6162C280.82 45.6162 282.803 43.902 282.803 40.1126V31.5055C282.803 27.5357 280.82 25.6952 276.459 25.6952H274.314C269.899 25.6952 267.862 27.5357 267.862 31.5055V40.1126C267.862 43.902 269.899 45.6162 274.314 45.6162H276.459Z" fill="#C1C1C1"/>
<path d="M312.215 38.2721L306.808 43.6854V50.5784C306.808 51.0836 306.339 51.4445 305.709 51.4445H299.076C298.446 51.4445 297.977 51.0836 297.977 50.5784V20.7149C297.977 20.2277 298.446 19.8669 299.076 19.8669H305.709C306.339 19.8669 306.808 20.2277 306.808 20.7149V34.555L320.18 20.1736C320.361 19.9571 320.649 19.8669 320.937 19.8669H327.678C329.011 19.8669 329.66 20.9134 328.849 21.7074L317.621 32.8949L330.291 49.8025C330.867 50.6145 330.291 51.4265 329.119 51.4265H321.91C321.568 51.4265 321.208 51.246 321.045 51.0115L312.215 38.2541V38.2721Z" fill="#C1C1C1"/>
<path d="M354.116 38.9037V50.5784C354.116 51.0836 353.647 51.4445 353.017 51.4445H346.384C345.754 51.4445 345.285 51.0836 345.285 50.5784V38.8135L333.481 21.4006C332.958 20.6428 333.589 19.8669 334.706 19.8669H341.158C341.5 19.8669 341.915 20.0473 342.095 20.318L347.087 28.3838C348.024 29.9176 348.89 31.4513 349.755 33.0212C350.62 31.4874 351.449 29.9176 352.368 28.3838L357.306 20.318C357.486 20.0473 357.883 19.8669 358.243 19.8669H364.749C365.848 19.8669 366.443 20.6247 365.92 21.4006L354.116 38.9037Z" fill="#C1C1C1"/>
<path d="M431.142 19.8669C432.007 19.8669 432.602 20.4082 432.368 21.0758L421.897 50.8491C421.789 51.2099 421.32 51.4445 420.852 51.4445H414.868C414.4 51.4445 413.931 51.228 413.823 50.8491L410.111 40.6179C409.173 37.9112 408.02 34.176 406.849 30.4769C405.749 34.176 404.632 37.821 403.659 40.5277L399.874 50.8491C399.766 51.2099 399.351 51.4445 398.883 51.4445H392.953C392.485 51.4445 392.016 51.228 391.908 50.8491L381.275 21.0758C381.041 20.4443 381.618 19.8669 382.501 19.8669H389.601C390.07 19.8669 390.539 20.1375 390.647 20.4984L393.44 30.098C394.431 33.6167 395.423 37.406 396.414 41.1051C397.459 37.3519 398.63 33.5264 399.784 29.9717L402.974 20.4623C403.082 20.0473 403.496 19.8669 403.965 19.8669H409.786C410.255 19.8669 410.723 20.0473 410.831 20.4623L414.021 29.9717C415.193 33.5806 416.346 37.406 417.446 41.1953C418.311 37.4962 419.248 33.7971 420.239 30.2785L423.032 20.4984C423.14 20.1375 423.609 19.8669 424.078 19.8669H431.178H431.142Z" fill="#C1C1C1"/>
<path d="M437.054 20.7149C437.054 20.2277 437.522 19.8669 438.153 19.8669H444.785C445.434 19.8669 445.884 20.2277 445.884 20.7149V50.5784C445.884 51.0836 445.416 51.4445 444.785 51.4445H438.153C437.522 51.4445 437.054 51.0836 437.054 50.5784V20.7149Z" fill="#C1C1C1"/>
<path d="M481.766 25.226C481.766 25.7132 481.298 26.0741 480.667 26.0741H470.43V50.5603C470.43 51.0656 469.962 51.4265 469.331 51.4265H462.699C462.068 51.4265 461.6 51.0656 461.6 50.5603V26.0741H451.255C450.606 26.0741 450.156 25.7132 450.156 25.226V20.7149C450.156 20.2277 450.624 19.8669 451.255 19.8669H480.667C481.298 19.8669 481.766 20.2277 481.766 20.7149V25.226Z" fill="#C1C1C1"/>
<path d="M516.801 19.8669C517.432 19.8669 517.901 20.2277 517.901 20.7149V50.5784C517.901 51.0836 517.432 51.4445 516.801 51.4445H510.169C509.538 51.4445 509.07 51.0836 509.07 50.5784V38.633H494.832V50.5784C494.832 51.0836 494.364 51.4445 493.733 51.4445H487.101C486.452 51.4445 486.002 51.0836 486.002 50.5784V20.7149C486.002 20.2277 486.47 19.8669 487.101 19.8669H493.733C494.382 19.8669 494.832 20.2277 494.832 20.7149V32.3536H509.07V20.7149C509.07 20.2277 509.538 19.8669 510.169 19.8669H516.801Z" fill="#C1C1C1"/>
<path d="M547.367 25.8576V33.0753H560.793C561.424 33.0753 561.892 33.4362 561.892 33.9234V38.0195C561.892 38.5247 561.424 38.8856 560.793 38.8856H547.367V50.5603C547.367 51.0656 546.898 51.4265 546.267 51.4265H539.635C538.986 51.4265 538.536 51.0656 538.536 50.5603V20.7149C538.536 20.2277 539.004 19.8669 539.635 19.8669H563.641C564.271 19.8669 564.74 20.2277 564.74 20.7149V25.0095C564.74 25.4967 564.271 25.8576 563.641 25.8576H547.367Z" fill="#C1C1C1"/>
<path d="M584.168 39.4811H578.184V50.5784C578.184 51.0836 577.716 51.4445 577.085 51.4445H570.453C569.804 51.4445 569.354 51.0836 569.354 50.5784V20.7149C569.354 20.2277 569.822 19.8669 570.453 19.8669H587.61C596.098 19.8669 599.991 22.79 599.991 29.2499V29.9717C599.991 34.3926 597.774 37.0451 592.89 38.4526L600.153 49.9468C600.622 50.6686 599.973 51.4445 598.928 51.4445H591.719C591.304 51.4445 590.962 51.3002 590.782 50.9934L584.15 39.4991L584.168 39.4811ZM578.184 33.7069H586.204C589.466 33.7069 590.908 32.534 590.908 29.9176V29.4665C590.908 26.9402 589.448 25.7674 586.204 25.7674H578.184V33.7069Z" fill="#C1C1C1"/>
<path d="M605.38 20.7149C605.38 20.2277 605.848 19.8669 606.479 19.8669H613.111C613.76 19.8669 614.211 20.2277 614.211 20.7149V50.5784C614.211 51.0836 613.742 51.4445 613.111 51.4445H606.479C605.83 51.4445 605.38 51.0836 605.38 50.5784V20.7149Z" fill="#C1C1C1"/>
<path d="M630.719 25.8576V32.5701H644.668C645.317 32.5701 645.767 32.931 645.767 33.4182V37.5143C645.767 38.0015 645.299 38.3623 644.668 38.3623H630.719V45.3996H647.515C648.146 45.3996 648.615 45.7605 648.615 46.2477V50.5243C648.615 51.0295 648.146 51.3904 647.515 51.3904H622.987C622.339 51.3904 621.888 51.0295 621.888 50.5243V20.7149C621.888 20.2277 622.357 19.8669 622.987 19.8669H647.515C648.146 19.8669 648.615 20.2277 648.615 20.7149V25.0095C648.615 25.4967 648.146 25.8576 647.515 25.8576H630.719Z" fill="#C1C1C1"/>
<path d="M683.956 19.8669C684.605 19.8669 685.055 20.2277 685.055 20.7149V50.5784C685.055 51.0836 684.587 51.4445 683.956 51.4445H677.396C677.054 51.4445 676.693 51.3543 676.531 51.0836L668.043 39.5894C665.772 36.5218 663.807 33.6888 661.879 30.9281V50.5964C661.879 51.1017 661.41 51.4626 660.78 51.4626H654.67C654.021 51.4626 653.571 51.1017 653.571 50.5964V20.7149C653.571 20.2277 654.039 19.8669 654.67 19.8669H661.537C661.879 19.8669 662.239 20.0112 662.402 20.2638L670.89 31.9927C673.035 34.97 674.963 37.803 676.819 40.5638V20.7149C676.819 20.2277 677.288 19.8669 677.919 19.8669H683.956Z" fill="#C1C1C1"/>
<path d="M708.718 19.8669C718.955 19.8669 723.659 23.3314 723.659 30.9641V40.5638C723.659 47.998 718.955 51.4265 708.718 51.4265H693.832C693.183 51.4265 692.733 51.0656 692.733 50.5603V20.7149C692.733 20.2277 693.201 19.8669 693.832 19.8669H708.718ZM714.594 31.9927C714.594 27.9868 712.611 26.1283 708.25 26.1283H701.564V45.1651H708.25C712.611 45.1651 714.594 43.4509 714.594 39.6615V31.9927Z" fill="#C1C1C1"/>
<path d="M742.185 51.8776C733.355 51.8776 728.579 49.0807 728.11 43.6674C728.056 43.1621 728.579 42.7652 729.209 42.7652H736.004C736.581 42.7652 736.995 43.0719 737.103 43.523C737.518 45.147 739.32 45.959 742.402 45.959H744.492C748.097 45.959 750.007 44.6598 750.007 42.1697C750.007 40.4555 748.025 39.2465 744.312 38.615C733.967 36.9549 728.561 33.5625 728.561 28.7447C728.561 22.6096 733.156 19.4157 741.879 19.4157H744.384C752.53 19.4157 757 22.2126 757.414 27.5357C757.468 28.041 756.945 28.4379 756.315 28.4379H749.629C749.052 28.4379 748.637 28.1312 748.529 27.6801C748.187 26.1463 746.619 25.3343 743.934 25.3343H742.312C739.23 25.3343 737.608 26.417 737.608 28.4379C737.608 30.1882 740.275 31.5055 745.393 32.3175C754.35 33.7069 759 37.009 759 41.881C759 48.4672 754.062 51.8956 744.636 51.8956H742.203L742.185 51.8776Z" fill="#C1C1C1"/>
</g>
<defs>
<clipPath id="clip0_3_4">
<rect width="759" height="74" fill="white"/>
</clipPath>
</defs>
</svg>
